# xmcd
#
# Track frame offsets:
#	182
#	13462
#	31770
#	53445
#	68690
#	84682
#	94820
#	106705
#	122252
#	138672
#	147560
#	161745
#	188117
#	202070
#	218185
#	235090
#
# Disc length: 3286 seconds
#
# Revision: 1
# Processed by: cddbd v1.4PL0 Copyright (c) Steve Scherf et al.
# Submitted via: MusicWizard 6.0.2
#
DISCID=df0cd410
DTITLE=Various Artist - Die Grössten Deutschen Country Und
DYEAR=1991
DGENRE=Country
TTITLE0=Truck Stop - Arizona
TTITLE1=Western Union - Ich Seh` Die Grosse Welt Nur Durch Die Windschutzscheibe
TTITLE2=Hill Jonny - Ruf Teddybär Eins-Vier
TTITLE3=Country Company The - Daddy`s Freund
TTITLE4=Gabriel Gunter - Wir Sind Fahrer
TTITLE5=Paulsen Ralf - Bonanza
TTITLE6=Astor Tom - Hallo Guten Morgen Deutschland
TTITLE7=Spelane Frankie - Vorüber Vergessen Vorbei
TTITLE8=Gabriel Gunter - Deutsches Laster Gutes Laster
TTITLE9=Hill Jonny - Ring Aus Feuer
TTITLE10=Held Peter - Der Spieler
TTITLE11=Western Union - Truckdriver Blues
TTITLE12=Country Company The - Liebeszeichen
TTITLE13=Astor Tom - Junger Adler
TTITLE14=Bendix Ralf - Big Bad John
TTITLE15=Quinn Freddy - Hundert Mann Und Ein Befehl
EXTD=
EXTT0=
EXTT1=
EXTT2=
EXTT3=
EXTT4=
EXTT5=
EXTT6=
EXTT7=
EXTT8=
EXTT9=
EXTT10=
EXTT11=
EXTT12=
EXTT13=
EXTT14=
EXTT15=
PLAYORDER=
